<svg xmlns="http://www.w3.org/2000/svg" xmlns:xlink="http://www.w3.org/1999/xlink" width="500" zoomAndPan="magnify" viewBox="0 0 375 187.499995" height="250" preserveAspectRatio="xMidYMid meet" version="1.0"><defs><g/><clipPath id="36b7c362ce"><path d="M 207.652344 67.683594 L 215.664062 67.683594 L 215.664062 85.871094 L 207.652344 85.871094 Z M 207.652344 67.683594 " clip-rule="nonzero"/></clipPath><clipPath id="1a47cb6c91"><path d="M 215.664062 57.496094 L 226.878906 57.496094 L 226.878906 141.054688 L 215.664062 141.054688 Z M 215.664062 57.496094 " clip-rule="nonzero"/></clipPath></defs><g fill="#fffefd" fill-opacity="1"><g transform="translate(166.567254, 150.396053)"><g><path d="M 30.054688 2.121094 L 29.050781 4.582031 C 26.144531 9.796875 21.304688 13.480469 14.523438 15.640625 L 8.042969 15.753906 L 14.523438 10.613281 C 16.535156 8.976562 18.25 6.851562 19.664062 4.246094 L 19.664062 0 L 5.699219 0 L 5.699219 -15.417969 C 5.699219 -18.175781 6.480469 -20.335938 8.042969 -21.898438 C 9.160156 -23.015625 11.246094 -23.984375 14.300781 -24.804688 L 23.351562 -27.375 C 23.949219 -27.523438 24.972656 -28.136719 26.425781 -29.21875 C 27.875 -30.296875 29.085938 -30.988281 30.054688 -31.285156 Z M 18.433594 -16.757812 C 17.46875 -16.757812 16.609375 -16.386719 15.867188 -15.640625 C 15.121094 -14.898438 14.75 -14.039062 14.75 -13.074219 C 14.75 -12.105469 15.121094 -11.265625 15.867188 -10.558594 C 16.609375 -9.851562 17.46875 -9.496094 18.433594 -9.496094 C 19.402344 -9.496094 20.261719 -9.851562 21.003906 -10.558594 C 21.75 -11.265625 22.121094 -12.105469 22.121094 -13.074219 C 22.121094 -14.039062 21.75 -14.898438 21.003906 -15.640625 C 20.261719 -16.386719 19.402344 -16.757812 18.433594 -16.757812 Z M 18.433594 -16.757812 "/></g></g></g><g fill="#fffefd" fill-opacity="1"><g transform="translate(195.503781, 150.396053)"><g><path d="M 0 0 L 0 -10.054688 L 21.339844 -10.054688 L 21.339844 -67.148438 C 21.339844 -70.949219 20.519531 -73.628906 18.882812 -75.195312 L 16.535156 -76.535156 L 17.429688 -76.757812 C 20.855469 -77.652344 23.835938 -79.214844 26.367188 -81.449219 C 26.890625 -82.046875 28.640625 -84.429688 31.621094 -88.601562 L 31.621094 0 Z M 0 0 "/></g></g></g><g fill="#fffefd" fill-opacity="1"><g transform="translate(232.707888, 150.396053)"><g><path d="M 26.703125 -1.117188 C 26.777344 4.171875 25.027344 8.769531 21.453125 12.679688 C 17.875 16.59375 13.519531 18.546875 8.378906 18.546875 C 7.785156 18.546875 7.375 18.472656 7.152344 18.324219 L 5.699219 17.765625 C 6.292969 16.5 7.726562 15.027344 10 13.351562 C 12.273438 11.675781 13.816406 10.203125 14.636719 8.9375 C 16.273438 6.703125 17.09375 3.835938 17.09375 0.335938 C 17.09375 -2.644531 16.425781 -5.066406 15.082031 -6.925781 L 10.835938 -11.171875 C 10.835938 -14.375 12.328125 -16.609375 15.308594 -17.875 C 16.945312 -21.601562 19.367188 -23.722656 22.570312 -24.246094 L 21.898438 -18.882812 C 21.898438 -16.199219 22.308594 -14.5625 23.128906 -13.964844 C 24.46875 -12.699219 25.214844 -11.957031 25.363281 -11.730469 C 26.183594 -9.71875 26.628906 -6.183594 26.703125 -1.117188 Z M 26.703125 -1.117188 "/></g></g></g><g fill="#fffefd" fill-opacity="1"><g transform="translate(258.18097, 150.396053)"><g><path d="M 75.195312 -29.496094 C 74.449219 -29.496094 73.703125 -29.011719 72.960938 -28.042969 C 72.660156 -27.226562 72.4375 -26.109375 72.289062 -24.691406 L 72.289062 -24.023438 L 72.402344 -23.796875 L 72.402344 -19.328125 L 72.511719 -18.210938 C 72.511719 -17.167969 72.175781 -16.351562 71.507812 -15.753906 C 70.761719 -15.457031 69.125 -15.308594 66.589844 -15.308594 L 9.832031 -15.308594 L 9.832031 -26.03125 L 56.3125 -88.488281 C 56.609375 -86.328125 56.871094 -84.691406 57.09375 -83.574219 C 57.539062 -81.191406 58.007812 -79.683594 58.492188 -79.050781 C 58.976562 -78.414062 60.074219 -77.316406 61.785156 -75.753906 L 63.574219 -74.300781 C 63.203125 -74.375 62.457031 -74.300781 61.339844 -74.078125 L 57.988281 -73.292969 C 56.722656 -73.292969 54.933594 -71.992188 52.625 -69.382812 C 50.09375 -65.136719 46.105469 -58.992188 40.667969 -50.949219 L 29.386719 -36.3125 L 24.914062 -30.054688 L 21.898438 -26.03125 L 62.902344 -26.144531 L 62.679688 -28.492188 C 62.679688 -35.195312 65.921875 -39.144531 72.402344 -40.335938 C 72.773438 -40.335938 73.371094 -40.855469 74.1875 -41.898438 C 75.007812 -42.941406 75.605469 -43.539062 75.976562 -43.6875 L 76.421875 -43.128906 L 77.207031 -42.121094 C 77.800781 -41.152344 78.324219 -40.558594 78.769531 -40.335938 C 81.375 -39.441406 83.554688 -37.632812 85.304688 -34.914062 C 87.054688 -32.195312 87.929688 -29.460938 87.929688 -26.703125 L 87.929688 0 L 0 0 L 0 -10.054688 L 77.652344 -10.054688 L 77.652344 -23.015625 C 77.652344 -24.953125 77.207031 -26.667969 76.3125 -28.15625 C 76.238281 -28.378906 75.863281 -28.828125 75.195312 -29.496094 Z M 75.195312 -29.496094 "/></g></g></g><g clip-path="url(#36b7c362ce)"><path fill="#000000" d="M 207.652344 67.683594 L 215.664062 67.683594 L 215.664062 85.863281 L 207.652344 85.863281 Z M 207.652344 67.683594 " fill-opacity="1" fill-rule="nonzero"/></g><g fill="#fffefd" fill-opacity="1"><g transform="translate(31.312861, 81.210522)"><g><path d="M 57.875 -44.09375 L 57.875 -33.0625 C 57.875 -31.550781 57.332031 -30.253906 56.25 -29.171875 C 55.164062 -28.097656 53.867188 -27.5625 52.359375 -27.5625 C 53.867188 -27.5625 55.164062 -27.019531 56.25 -25.9375 C 57.332031 -24.851562 57.875 -23.554688 57.875 -22.046875 L 57.875 -11.015625 C 57.875 -9.046875 57.378906 -7.222656 56.390625 -5.546875 C 55.398438 -3.867188 54.078125 -2.523438 52.421875 -1.515625 C 50.773438 -0.503906 48.914062 0 46.84375 0 L 2.75 0 L 2.75 -55.109375 L 46.84375 -55.109375 C 48.914062 -55.109375 50.773438 -54.601562 52.421875 -53.59375 C 54.078125 -52.582031 55.398438 -51.25 56.390625 -49.59375 C 57.378906 -47.945312 57.875 -46.113281 57.875 -44.09375 Z M 46.84375 -44.09375 L 13.78125 -44.09375 L 13.78125 -33.0625 L 46.84375 -33.0625 Z M 13.78125 -11.015625 L 46.84375 -11.015625 L 46.84375 -22.046875 L 13.78125 -22.046875 Z M 13.78125 -11.015625 "/></g></g></g><g fill="#fffefd" fill-opacity="1"><g transform="translate(91.939193, 81.210522)"><g><path d="M 46.84375 0 L 13.78125 0 C 11.757812 0 9.910156 -0.492188 8.234375 -1.484375 C 6.554688 -2.472656 5.222656 -3.800781 4.234375 -5.46875 C 3.242188 -7.144531 2.75 -8.992188 2.75 -11.015625 L 2.75 -44.09375 C 2.75 -46.113281 3.242188 -47.960938 4.234375 -49.640625 C 5.222656 -51.316406 6.554688 -52.644531 8.234375 -53.625 C 9.910156 -54.613281 11.757812 -55.109375 13.78125 -55.109375 L 46.84375 -55.109375 C 48.863281 -55.109375 50.710938 -54.613281 52.390625 -53.625 C 54.066406 -52.644531 55.398438 -51.316406 56.390625 -49.640625 C 57.378906 -47.960938 57.875 -46.113281 57.875 -44.09375 L 57.875 -11.015625 C 57.875 -9.046875 57.378906 -7.222656 56.390625 -5.546875 C 55.398438 -3.867188 54.078125 -2.523438 52.421875 -1.515625 C 50.773438 -0.503906 48.914062 0 46.84375 0 Z M 13.78125 -44.09375 L 13.78125 -11.015625 L 46.84375 -11.015625 L 46.84375 -44.09375 Z M 13.78125 -44.09375 "/></g></g></g><g fill="#fffefd" fill-opacity="1"><g transform="translate(152.565524, 81.210522)"><g><path d="M 46.84375 0 L 13.78125 0 C 11.757812 0 9.910156 -0.492188 8.234375 -1.484375 C 6.554688 -2.472656 5.222656 -3.800781 4.234375 -5.46875 C 3.242188 -7.144531 2.75 -8.992188 2.75 -11.015625 L 2.75 -44.09375 C 2.75 -46.113281 3.242188 -47.960938 4.234375 -49.640625 C 5.222656 -51.316406 6.554688 -52.644531 8.234375 -53.625 C 9.910156 -54.613281 11.757812 -55.109375 13.78125 -55.109375 L 46.84375 -55.109375 C 48.863281 -55.109375 50.710938 -54.613281 52.390625 -53.625 C 54.066406 -52.644531 55.398438 -51.316406 56.390625 -49.640625 C 57.378906 -47.960938 57.875 -46.113281 57.875 -44.09375 L 57.875 -11.015625 C 57.875 -9.046875 57.378906 -7.222656 56.390625 -5.546875 C 55.398438 -3.867188 54.078125 -2.523438 52.421875 -1.515625 C 50.773438 -0.503906 48.914062 0 46.84375 0 Z M 13.78125 -44.09375 L 13.78125 -11.015625 L 46.84375 -11.015625 L 46.84375 -44.09375 Z M 13.78125 -44.09375 "/></g></g></g><g fill="#fffefd" fill-opacity="1"><g transform="translate(213.191856, 81.210522)"><g><path d="M 57.875 -55.109375 L 57.875 -44.09375 L 46.84375 -44.09375 L 30.3125 -27.5625 L 46.84375 -11.015625 L 57.875 -11.015625 L 57.875 0 L 44.640625 0 C 43.078125 0 41.742188 -0.550781 40.640625 -1.65625 L 20.25 -22.046875 L 13.78125 -22.046875 L 13.78125 0 L 2.75 0 L 2.75 -55.109375 L 13.78125 -55.109375 L 13.78125 -33.0625 L 20.25 -33.0625 L 40.640625 -53.453125 C 41.742188 -54.554688 43.078125 -55.109375 44.640625 -55.109375 Z M 57.875 -55.109375 "/></g></g></g><g clip-path="url(#1a47cb6c91)"><path fill="#fffefd" d="M 215.664062 57.496094 L 226.878906 57.496094 L 226.878906 141.039062 L 215.664062 141.039062 Z M 215.664062 57.496094 " fill-opacity="1" fill-rule="nonzero"/></g></svg>